<svg width="278" height="106" viewBox="0 0 278 106" fill="none" xmlns="http://www.w3.org/2000/svg">
<path d="M20.23 32.293C18.6207 32.293 17.2243 31.7487 16.041 30.66C14.905 29.5713 14.337 28.2697 14.337 26.755C14.337 25.2403 14.905 23.9387 16.041 22.85C17.2243 21.7613 18.6207 21.217 20.23 21.217C21.8393 21.217 23.212 21.7613 24.348 22.85C25.484 23.9387 26.052 25.2403 26.052 26.755C26.052 28.2697 25.484 29.5713 24.348 30.66C23.212 31.7487 21.8393 32.293 20.23 32.293ZM14.124 36.34H26.265V69H14.124V36.34ZM49.254 28.317C53.088 28.317 56.3304 28.672 58.981 29.382C61.6317 30.092 63.738 31.4647 65.3 33.5C66.9094 35.488 67.714 38.3517 67.714 42.091C67.714 43.7477 67.4537 45.4517 66.933 47.203C66.4597 48.907 65.8444 50.398 65.087 51.676C64.377 52.954 63.738 53.7823 63.17 54.161C62.5074 54.6343 61.04 55.013 58.768 55.297C56.496 55.5337 53.8217 55.652 50.745 55.652C49.6564 55.652 47.976 55.6047 45.704 55.51V69H32.924V28.53C37.894 28.388 43.3374 28.317 49.254 28.317ZM54.579 46.564C55.0524 45.9487 55.289 44.718 55.289 42.872C55.289 40.458 54.7684 38.754 53.727 37.76C52.733 36.766 50.9817 36.269 48.473 36.269C47.621 36.269 46.698 36.34 45.704 36.482V47.274C46.1774 47.3213 47.1004 47.345 48.473 47.345C52.1177 47.345 54.153 47.0847 54.579 46.564ZM91.9755 69.923C84.9228 69.923 79.6215 68.2663 76.0715 64.953C72.5688 61.5923 70.8175 56.22 70.8175 48.836C70.8175 41.594 72.7582 36.3163 76.6395 33.003C80.5208 29.6897 85.6565 28.033 92.0465 28.033C105.489 28.033 112.211 34.7307 112.211 48.126C112.211 54.8947 110.554 60.2197 107.241 64.101C103.975 67.9823 98.8862 69.923 91.9755 69.923ZM91.6915 61.545C93.0168 61.545 94.1292 61.332 95.0285 60.906C95.9278 60.4327 96.6378 59.628 97.1585 58.492C98.1525 56.5513 98.6495 53.38 98.6495 48.978C98.6495 44.6707 98.1525 41.5467 97.1585 39.606C96.1645 37.618 94.3422 36.5767 91.6915 36.482C90.6975 36.482 89.6562 36.6003 88.5675 36.837C87.5262 37.0263 86.8635 37.3103 86.5795 37.689C86.0115 38.3517 85.5618 39.7717 85.2305 41.949C84.9465 44.079 84.8045 46.422 84.8045 48.978C84.8045 52.954 85.1832 55.865 85.9405 57.711C86.4612 59.0837 87.1948 60.0777 88.1415 60.693C89.0882 61.261 90.2715 61.545 91.6915 61.545ZM134.191 28.317C138.025 28.317 141.267 28.672 143.918 29.382C146.568 30.092 148.675 31.4647 150.237 33.5C151.846 35.488 152.651 38.3517 152.651 42.091C152.651 43.7477 152.39 45.4517 151.87 47.203C151.396 48.907 150.781 50.398 150.024 51.676C149.314 52.954 148.675 53.7823 148.107 54.161C147.444 54.6343 145.977 55.013 143.705 55.297C141.433 55.5337 138.758 55.652 135.682 55.652C134.593 55.652 132.913 55.6047 130.641 55.51V69H117.861V28.53C122.831 28.388 128.274 28.317 134.191 28.317ZM139.516 46.564C139.989 45.9487 140.226 44.718 140.226 42.872C140.226 40.458 139.705 38.754 138.664 37.76C137.67 36.766 135.918 36.269 133.41 36.269C132.558 36.269 131.635 36.34 130.641 36.482V47.274C131.114 47.3213 132.037 47.345 133.41 47.345C137.054 47.345 139.09 47.0847 139.516 46.564ZM173.504 28.317C177.338 28.317 180.58 28.672 183.231 29.382C185.882 30.092 187.988 31.4647 189.55 33.5C191.159 35.488 191.964 38.3517 191.964 42.091C191.964 43.7477 191.704 45.4517 191.183 47.203C190.71 48.907 190.094 50.398 189.337 51.676C188.627 52.954 187.988 53.7823 187.42 54.161C186.757 54.6343 185.29 55.013 183.018 55.297C180.746 55.5337 178.072 55.652 174.995 55.652C173.906 55.652 172.226 55.6047 169.954 55.51V69H157.174V28.53C162.144 28.388 167.587 28.317 173.504 28.317ZM178.829 46.564C179.302 45.9487 179.539 44.718 179.539 42.872C179.539 40.458 179.018 38.754 177.977 37.76C176.983 36.766 175.232 36.269 172.723 36.269C171.871 36.269 170.948 36.34 169.954 36.482V47.274C170.427 47.3213 171.35 47.345 172.723 47.345C176.368 47.345 178.403 47.0847 178.829 46.564ZM218.853 56.078V69H206.073V56.22L192.44 28.53H205.434L210.83 41.665C211.398 42.9903 211.918 44.3867 212.392 45.854H212.534C213.054 44.2447 213.575 42.801 214.096 41.523L219.421 28.53H232.343L218.853 56.078ZM245.365 39.464C245.365 40.458 245.862 41.239 246.856 41.807C247.897 42.375 249.507 42.9903 251.684 43.653C254.287 44.505 256.417 45.3333 258.074 46.138C259.778 46.9427 261.245 48.197 262.476 49.901C263.754 51.605 264.393 53.8297 264.393 56.575C264.393 65.379 258.666 69.781 247.211 69.781C245.318 69.781 242.998 69.6153 240.253 69.284C237.555 68.9527 235.094 68.5267 232.869 68.006C232.964 67.012 233.153 65.5683 233.437 63.675C233.768 61.7343 234.076 60.2907 234.36 59.344C236.017 59.5807 238.502 59.8647 241.815 60.196C245.176 60.5273 247.708 60.693 249.412 60.693C250.406 60.693 250.998 60.622 251.187 60.48C251.471 60.2907 251.684 59.983 251.826 59.557C252.015 59.0837 252.11 58.6813 252.11 58.35C252.11 57.4033 251.66 56.6933 250.761 56.22C249.862 55.6993 248.323 55.084 246.146 54.374C243.543 53.5693 241.389 52.741 239.685 51.889C237.981 51.037 236.49 49.7117 235.212 47.913C233.934 46.1143 233.295 43.7477 233.295 40.813C233.295 38.7303 233.768 36.695 234.715 34.707C235.662 32.6717 236.632 31.299 237.626 30.589C238.383 30.0683 239.945 29.5713 242.312 29.098C244.679 28.6247 246.903 28.388 248.986 28.388C254.287 28.388 258.618 28.885 261.979 29.879C261.932 30.8257 261.766 32.1273 261.482 33.784C261.245 35.4407 260.985 36.9553 260.701 38.328L259.068 38.257C252.915 37.831 248.986 37.618 247.282 37.618C246.572 37.618 246.17 37.6417 246.075 37.689C245.886 37.7837 245.72 37.9967 245.578 38.328C245.436 38.6593 245.365 39.038 245.365 39.464Z" fill="white"/>
<line x1="1.31134e-07" y1="78.5" x2="278" y2="78.5" stroke="white" stroke-width="3"/>
</svg>
